<svg xmlns="http://www.w3.org/2000/svg" viewBox="0 0 388.89 258.54"><defs><style>.cls-1,.cls-2{fill:#fa7268;}.cls-2{font-size:94.96px;font-family:Roboto-Bold, Roboto;font-weight:700;letter-spacing:0.1em;}.cls-3{letter-spacing:0.11em;}.cls-4{letter-spacing:0.1em;}</style></defs><title>logo</title><g id="Layer_2" data-name="Layer 2"><g id="Layer_1-2" data-name="Layer 1"><g id="_6" data-name="6"><polygon class="cls-1" points="106.75 70.16 84.93 91.93 77.38 99.53 23.94 152.92 6.23 152.92 88.94 70.16 106.75 70.16"/><polygon class="cls-1" points="183 152.92 145.92 152.92 89.99 96.89 108.53 78.34 183 152.92"/><polygon class="cls-1" points="388.89 152.92 351.81 152.92 226.6 27.71 245.14 9.22 388.89 152.92"/><polygon class="cls-1" points="242.75 0 220.82 21.88 205.82 36.88 141.53 101.26 133.82 93.55 213.11 14.17 227.28 0 242.75 0"/><rect class="cls-1" x="200.23" y="128.08" width="19.74" height="24.84"/><rect class="cls-1" x="77.26" y="128.08" width="19.74" height="24.84"/><rect class="cls-1" x="228.57" y="128.08" width="19.74" height="24.84"/><rect class="cls-1" x="200.23" y="94.64" width="19.74" height="24.84"/><rect class="cls-1" x="228.57" y="94.64" width="19.74" height="24.84"/><text class="cls-2" transform="translate(0 232.8)">HO<tspan class="cls-3" x="151.64" y="0">M</tspan><tspan class="cls-4" x="245.15" y="0">AX</tspan></text></g></g></g></svg>